<svg xmlns="http://www.w3.org/2000/svg" viewBox="0 0 200 200">
    <!-- Gradient Definitions -->
    <defs>
        <linearGradient id="spaceGradient" x1="0%" y1="0%" x2="100%" y2="100%">
            <stop offset="0%" style="stop-color:#1e1b4b;stop-opacity:1" />
            <stop offset="100%" style="stop-color:#312e81;stop-opacity:1" />
        </linearGradient>
        <linearGradient id="bubbleGradient" x1="0%" y1="0%" x2="100%" y2="100%">
            <stop offset="0%" style="stop-color:#6366f1;stop-opacity:1" />
            <stop offset="100%" style="stop-color:#818cf8;stop-opacity:1" />
        </linearGradient>
    </defs>

    <!-- Space-themed Background -->
    <circle cx="100" cy="100" r="90" fill="url(#spaceGradient)" />
    
    <!-- Orbital Ring -->
    <ellipse cx="100" cy="100" rx="75" ry="25" 
        fill="none" 
        stroke="#a5b4fc" 
        stroke-width="3" 
        transform="rotate(-25,100,100)"
    />
    
    <!-- Chat Bubble -->
    <path d="M80,70 
            C80,65 85,60 90,60 
            L140,60 
            C145,60 150,65 150,70
            L150,110
            C150,115 145,120 140,120
            L115,120
            L105,130
            L95,120
            L90,120
            C85,120 80,115 80,110
            Z" 
        fill="url(#bubbleGradient)"
    />
    
    <!-- Message Dots -->
    <circle cx="105" cy="90" r="4" fill="#e0e7ff" />
    <circle cx="115" cy="90" r="4" fill="#e0e7ff" />
    <circle cx="125" cy="90" r="4" fill="#e0e7ff" />
    
    <!-- Center Planet -->
    <circle cx="100" cy="100" r="15" fill="#818cf8" />
</svg>